HIERARCHY
ROOT Hips
{
	OFFSET 0.00000 0.00000 0.00000
	CHANNELS 6 Xposition Yposition Zposition Zrotation Yrotation Xrotation 
	JOINT LHipJoint
	{
		OFFSET 0 0 0
		CHANNELS 3 Zrotation Yrotation Xrotation
		JOINT LeftUpLeg
		{
			OFFSET 1.85742 -1.74412 1.01653
			CHANNELS 3 Zrotation Yrotation Xrotation
			JOINT LeftLeg
			{
				OFFSET 2.54803 -7.00067 0.00000
				CHANNELS 3 Zrotation Yrotation Xrotation
				JOINT LeftFoot
				{
					OFFSET 2.51202 -6.90173 0.00000
					CHANNELS 3 Zrotation Yrotation Xrotation
					JOINT LeftToeBase
					{
						OFFSET 0.17547 -0.48209 1.64281
						CHANNELS 3 Zrotation Yrotation Xrotation
						End Site
						{
							OFFSET 0.00000 -0.00000 0.86587
						}
					}
				}
			}
		}
	}
	JOINT RHipJoint
	{
		OFFSET 0 0 0
		CHANNELS 3 Zrotation Yrotation Xrotation
		JOINT RightUpLeg
		{
			OFFSET -1.95533 -1.74413 1.01654
			CHANNELS 3 Zrotation Yrotation Xrotation
			JOINT RightLeg
			{
				OFFSET -2.49465 -6.85400 0.00000
				CHANNELS 3 Zrotation Yrotation Xrotation
				JOINT RightFoot
				{
					OFFSET -2.54783 -7.00010 0.00000
					CHANNELS 3 Zrotation Yrotation Xrotation
					JOINT RightToeBase
					{
						OFFSET -0.18513 -0.50864 1.69288
						CHANNELS 3 Zrotation Yrotation Xrotation
						End Site
						{
							OFFSET -0.00000 -0.00000 0.89242
						}
					}
				}
			}
		}
	}
	JOINT LowerBack
	{
		OFFSET 0 0 0
		CHANNELS 3 Zrotation Yrotation Xrotation
		JOINT Spine
		{
			OFFSET 0.02173 2.16290 -0.15998
			CHANNELS 3 Zrotation Yrotation Xrotation
			JOINT Spine1
			{
				OFFSET 0.00940 2.17323 -0.00467
				CHANNELS 3 Zrotation Yrotation Xrotation
				JOINT Neck
				{
					OFFSET 0 0 0
					CHANNELS 3 Zrotation Yrotation Xrotation
					JOINT Neck1
					{
						OFFSET 0.01475 1.85823 0.31113
						CHANNELS 3 Zrotation Yrotation Xrotation
						JOINT Head
						{
							OFFSET 0.01902 1.88783 -0.37187
							CHANNELS 3 Zrotation Yrotation Xrotation
							End Site
							{
								OFFSET 0.00489 1.93211 -0.16169
							}
						}
					}
				}
				JOINT LeftShoulder
				{
					OFFSET 0 0 0
					CHANNELS 3 Zrotation Yrotation Xrotation
					JOINT LeftArm
					{
						OFFSET 3.34199 1.32384 -0.07862
						CHANNELS 3 Zrotation Yrotation Xrotation
						JOINT LeftForeArm
						{
							OFFSET 5.27950 -0.00000 0.00000
							CHANNELS 3 Zrotation Yrotation Xrotation
							JOINT LeftHand
							{
								OFFSET 3.53504 -0.00000 0.00000
								CHANNELS 3 Zrotation Yrotation Xrotation
								JOINT LeftFingerBase
								{
									OFFSET 0 0 0
									CHANNELS 3 Zrotation Yrotation Xrotation
									JOINT LeftHandIndex1
									{
										OFFSET 0.66795 -0.00000 0.00000
										CHANNELS 3 Zrotation Yrotation Xrotation
										End Site
										{
											OFFSET 0.53852 -0.00000 0.00000
										}
									}
								}
								JOINT LThumb
								{
									OFFSET 0 0 0
									CHANNELS 3 Zrotation Yrotation Xrotation
									End Site
									{
										OFFSET 0.54674 -0.00000 0.54674
									}
								}
							}
						}
					}
				}
				JOINT RightShoulder
				{
					OFFSET 0 0 0
					CHANNELS 3 Zrotation Yrotation Xrotation
					JOINT RightArm
					{
						OFFSET -3.16149 1.45719 -0.50507
						CHANNELS 3 Zrotation Yrotation Xrotation
						JOINT RightForeArm
						{
							OFFSET -5.25035 -0.00000 0.00000
							CHANNELS 3 Zrotation Yrotation Xrotation
							JOINT RightHand
							{
								OFFSET -3.58884 -0.00000 0.00000
								CHANNELS 3 Zrotation Yrotation Xrotation
								JOINT RightFingerBase
								{
									OFFSET 0 0 0
									CHANNELS 3 Zrotation Yrotation Xrotation
									JOINT RightHandIndex1
									{
										OFFSET -0.77924 -0.00000 0.00000
										CHANNELS 3 Zrotation Yrotation Xrotation
										End Site
										{
											OFFSET -0.62824 -0.00000 0.00000
										}
									}
								}
								JOINT RThumb
								{
									OFFSET 0 0 0
									CHANNELS 3 Zrotation Yrotation Xrotation
									End Site
									{
										OFFSET -0.63783 -0.00000 0.63783
									}
								}
							}
						}
					}
				}
			}
		}
	}
}
MOTION
Frames: 16
Frame Time: 0.0175439
0.00 0.00 0.00 12.8449 98.2321 18.6837 0.0000 0.0000 0.0000 -12.3535 -21.8335 -8.9432 1.2189 7.0028 19.7238 0.1116 8.0825 -13.5534 3.1848 -10.9884 -32.2407 0.0000 0.0000 0.0000 26.7233 25.7262 9.0131 -0.1141 -2.1775 5.9964 10.3564 -47.8276 -31.1643 -0.1550 -2.5367 6.9915 -1.0899 1.1720 -0.0367 1.5649 1.5888 -1.2977 2.1955 0.8238 -1.3829 2.9291 -2.3603 -20.8563 8.9980 -6.6183 45.2100 3.2470 0.2933 23.5800 0.0000 0.0000 0.0000 -63.8588 -26.8361 54.1952 136.8566 -49.8258 -99.1898 -0.0000 0.0000 -1.4139 46.5236 31.6787 28.9801 -7.1250 0.0000 -0.0000 24.2479 70.5140 15.0578 0.0000 0.0000 0.0000 71.2241 51.5125 75.3715 -89.0917 59.9969 -59.2134 0.0000 -0.0000 -38.2680 -8.1585 22.1313 -3.0915 7.1250 -0.0000 -0.0000 12.9862 -8.1028 11.3289
0.00 0.00 0.00 1.4487 110.2460 5.9605 0.0000 0.0000 0.0000 -13.5407 -25.5541 -7.7394 1.1997 6.9496 19.5662 0.3033 0.9451 -10.7890 3.5481 -11.5335 -34.1011 0.0000 0.0000 0.0000 27.4307 12.6328 8.2521 -0.1339 -2.3582 6.4966 4.3851 -40.7093 -41.6007 -2.0408 -8.9505 25.6406 0.4252 1.9686 -1.9200 1.2981 2.6559 -1.6685 1.1241 1.3452 -0.6759 2.4700 -3.5464 -22.2853 11.4563 -9.1504 43.9654 4.1040 -0.2156 23.7672 0.0000 0.0000 0.0000 -65.2310 -28.5664 60.1236 141.3202 -47.2680 -102.5368 -0.0000 0.0000 -2.9033 32.1223 29.4331 17.1463 -7.1250 0.0000 -0.0000 1.5726 63.6457 0.7111 0.0000 0.0000 0.0000 78.8180 41.8682 64.6986 -103.6036 59.2891 -71.7529 0.0000 -0.0000 -28.1692 -22.1691 28.3798 -10.9610 7.1250 -0.0000 -0.0000 4.8935 0.1806 4.9269
0.00 0.00 0.00 3.5730 111.1920 7.9037 0.0000 0.0000 0.0000 -12.6044 -24.8709 -8.4059 1.4350 7.5741 21.4276 0.4281 -1.3836 -11.9564 3.4689 -11.4179 -33.7026 0.0000 0.0000 0.0000 28.6709 10.1768 12.0416 0.0000 -0.0000 0.0000 5.3085 -41.6686 -39.6554 -2.3539 -9.5674 27.5868 -1.6238 1.6448 -3.2374 1.4244 2.3057 -2.8854 2.4163 1.2252 -1.2704 -0.1853 -4.6033 -23.8493 11.1316 -10.0212 41.9752 3.8792 -1.2338 22.8334 0.0000 -0.0000 0.0000 -57.9874 -29.2571 60.8139 138.4097 -48.9844 -100.3692 -0.0000 -0.0000 21.2320 29.6961 21.9407 12.0293 -7.1250 0.0000 -0.0000 0.9385 54.8559 0.2272 0.0000 -0.0000 0.0000 73.8578 44.6552 62.7810 -119.5712 56.4231 -85.3019 0.0000 -0.0000 -20.2874 -24.0361 30.5111 -12.7582 7.1250 -0.0000 -0.0000 4.1135 2.7773 4.3189
0.00 0.00 0.00 7.1780 109.6930 12.3791 0.0000 0.0000 0.0000 -11.2958 -25.0702 -10.2203 1.5651 7.8946 22.3943 0.4554 -0.2111 -12.6776 3.5959 -11.6023 -34.3392 0.0000 0.0000 0.0000 29.0330 12.5222 11.1844 0.0000 0.0000 -0.0000 5.7347 -42.1821 -38.9232 -2.1703 -9.2121 26.4612 -1.7153 2.3684 -2.4936 0.7849 3.2241 -2.0613 1.8144 1.6532 -0.8570 -0.4038 -4.8914 -24.2069 11.5639 -10.5806 41.8036 4.0040 -1.4328 23.0184 0.0000 0.0000 0.0000 -57.4099 -28.7829 56.9282 134.4063 -51.0561 -97.3004 -0.0000 -0.0000 21.2656 37.0688 26.5845 18.6790 -7.1250 0.0000 -0.0000 8.7850 61.8631 3.6193 0.0000 0.0000 0.0000 74.8390 49.0057 74.2099 -67.4612 57.9907 -40.6125 0.0000 -0.0000 -25.6761 -8.5386 27.0895 -3.9113 7.1250 -0.0000 -0.0000 12.8470 -3.2136 12.4280
0.00 0.00 0.00 4.8227 108.2520 11.5159 0.0000 0.0000 0.0000 -12.2434 -25.4140 -10.9699 1.4496 7.6107 21.5377 0.3877 1.2796 -12.2965 3.1006 -10.8561 -31.7961 0.0000 0.0000 0.0000 27.2421 14.3818 10.3349 0.0000 0.0000 -0.0000 5.7452 -42.2250 -38.9944 -2.1612 -9.1940 26.4042 -0.7283 3.5374 -1.8964 2.1448 4.7725 -1.3311 2.6621 2.4215 -0.5472 -0.3652 -6.0522 -22.2363 10.7848 -11.6365 44.0676 3.6380 -1.7239 24.3812 0.0000 0.0000 0.0000 -42.5984 -30.7871 32.9299 142.8504 -46.2875 -103.6519 -0.0000 0.0000 -8.8524 37.7730 32.6024 22.6622 -7.1250 0.0000 -0.0000 8.5150 68.7821 4.8692 0.0000 0.0000 0.0000 78.0560 36.6149 76.8544 -39.4566 47.7446 -18.0360 0.0000 -0.0000 -24.8036 -17.4698 29.3042 -8.7569 7.1250 -0.0000 -0.0000 7.7506 0.2479 7.8562
0.00 0.00 0.00 -0.2346 109.9400 6.3169 0.0000 0.0000 0.0000 -14.9039 -24.1833 -9.6720 1.2751 7.1566 20.1801 0.3689 -0.9065 -11.1911 3.3137 -11.1864 -32.9110 0.0000 0.0000 0.0000 25.4950 13.3135 7.6972 -0.1303 -2.3268 6.4097 3.6825 -40.0630 -43.1931 -2.0261 -8.9202 25.5459 -1.5296 3.0838 -1.8391 3.8866 4.2317 -1.2678 4.9022 2.1906 -0.6797 0.9782 -5.0645 -20.7278 11.8094 -10.6824 43.7406 4.1823 -0.9921 23.3429 -0.0000 -0.0000 0.0000 -9.0728 -26.8226 3.0462 133.1007 -51.6658 -96.2806 -0.0000 0.0000 -50.3750 43.6386 43.1079 33.0902 -7.1250 0.0000 -0.0000 18.1606 81.8967 15.4705 -0.0000 -0.0000 0.0000 79.0504 20.7170 31.3617 -8.9056 15.0099 -1.1756 0.0000 0.0000 13.5812 -28.0609 33.8070 -16.5204 7.1250 -0.0000 -0.0000 2.4472 7.1818 2.7362
0.00 0.00 0.00 -0.9319 110.1300 5.6218 0.0000 0.0000 0.0000 -15.2250 -23.3739 -9.8404 1.2479 7.0827 19.9608 0.3606 -1.9983 -10.8253 3.2873 -11.1463 -32.7748 0.0000 0.0000 0.0000 25.2032 13.2514 7.2602 -0.1699 -2.6551 7.3199 3.4513 -39.8230 -43.6443 -1.9841 -8.8329 25.2741 -1.3942 2.8431 -1.7273 3.9996 3.9149 -1.3133 4.9353 2.0351 -0.7573 0.5629 -4.9889 -20.6494 10.6578 -9.9442 44.0394 3.7960 -0.9654 23.2672 -0.0000 0.0000 0.0000 -6.4226 -26.1617 1.5302 131.0205 -52.5755 -94.6386 -0.0000 0.0000 -52.8553 42.9954 43.4341 32.6607 -7.1250 0.0000 -0.0000 15.5281 82.0240 13.2547 -0.0000 0.0000 0.0000 79.0948 21.2653 -2.8028 -4.2844 7.3729 -0.2762 0.0000 0.0000 43.7138 -32.5622 35.4889 -20.3415 7.1250 -0.0000 -0.0000 0.3984 10.2500 0.4630
0.00 0.00 0.00 -1.4475 110.4660 5.0773 0.0000 0.0000 0.0000 -15.5588 -23.7281 -9.5554 1.2286 7.0296 19.8032 0.3782 -2.0168 -11.0920 3.6134 -11.6273 -34.4260 0.0000 0.0000 0.0000 25.0198 12.9334 7.0983 -0.1893 -2.8019 7.7277 3.1491 -39.4492 -44.1118 -2.0830 -9.0369 25.9108 -1.3391 2.5579 -1.6890 4.1651 3.5364 -1.2476 5.0767 1.8455 -0.6819 0.6597 -4.5439 -20.8214 9.4280 -8.8232 44.1301 3.3310 -0.7320 23.0180 0.0000 0.0000 0.0000 -4.8836 -25.6162 0.4446 128.9372 -53.4152 -92.9748 -0.0000 0.0000 -53.4990 42.3695 42.4341 31.6109 -7.1250 0.0000 -0.0000 14.0442 80.7854 11.6413 0.0000 0.0000 0.0000 77.5048 22.0815 -45.9411 -2.5939 4.4821 -0.1015 0.0000 0.0000 82.9248 -31.9407 34.1030 -19.2669 7.1250 -0.0000 -0.0000 0.4039 8.6071 0.4598
0.00 0.00 0.00 -1.4345 110.5880 5.1790 0.0000 0.0000 0.0000 -15.5747 -23.4057 -9.8105 1.2354 7.0484 19.8589 0.3465 -2.3477 -10.5552 3.3020 -11.1686 -32.8507 0.0000 0.0000 0.0000 24.9417 12.7957 7.1363 -0.1771 -2.7105 7.4739 3.0418 -39.3518 -44.3466 -2.1596 -9.1909 26.3944 -0.9407 2.5367 -1.7793 4.1829 3.5070 -1.2776 4.8737 1.8290 -0.6362 1.1023 -4.1030 -20.9532 8.1655 -7.8171 44.1059 2.7526 -0.4814 22.6877 -0.0000 -0.0000 0.0000 -4.1077 -25.7455 -1.0456 126.3595 -54.3623 -90.8921 -0.0000 0.0000 -54.2342 41.6503 42.7846 31.1374 -7.1250 0.0000 -0.0000 11.4172 80.9000 9.4823 -0.0000 -0.0000 0.0000 75.3785 20.1365 -89.8508 -4.2891 7.3809 -0.2768 0.0000 0.0000 125.0590 -32.9959 35.9295 -20.8571 7.1250 -0.0000 -0.0000 0.2778 10.8476 0.3251
0.00 0.00 0.00 -2.9698 110.1100 3.9257 0.0000 0.0000 0.0000 -16.2305 -23.5819 -9.5254 1.1774 6.8871 19.3812 0.3519 -1.7915 -10.7251 3.3453 -11.2340 -33.0733 0.0000 0.0000 0.0000 24.2610 13.5352 6.4530 -0.2477 -3.2026 8.8432 2.7605 -39.0370 -44.8456 -2.1042 -9.0799 26.0456 -0.6748 2.3930 -1.6095 4.2923 3.3097 -1.0955 4.8336 1.7248 -0.5173 1.7070 -2.6362 -22.5050 4.8654 -4.4142 44.8659 1.6838 0.3964 23.2947 0.0000 0.0000 0.0000 -5.4009 -24.6453 -5.9072 110.7543 -58.3082 -77.8717 -0.0000 0.0000 -49.4106 40.9338 40.4641 29.3720 -7.1250 0.0000 -0.0000 11.2478 78.2507 8.7398 0.0000 0.0000 0.0000 69.9318 13.9801 -128.9734 -5.6755 9.7199 -0.4830 0.0000 0.0000 154.7600 -33.2766 32.6849 -19.5149 7.1250 -0.0000 -0.0000 -0.6463 7.5227 -0.7254
0.00 0.00 0.00 -3.2504 109.8790 3.6773 0.0000 0.0000 0.0000 -16.3635 -23.4628 -9.4743 1.1705 6.8674 19.3233 0.3377 -1.5382 -10.5485 3.2440 -11.0799 -32.5497 0.0000 0.0000 0.0000 24.1840 13.7744 6.4596 -0.2595 -3.2774 9.0519 2.6836 -38.9550 -44.9896 -2.0906 -9.0522 25.9588 -0.6904 2.3998 -1.6740 4.1725 3.3196 -1.2385 4.7166 1.7313 -0.6227 2.1636 -2.3909 -22.3384 4.1178 -3.7836 45.3270 1.3735 0.6391 23.5497 -0.0000 -0.0000 0.0000 -5.9112 -25.1117 -6.1186 106.1873 -58.9864 -73.9709 -0.0000 0.0000 -48.0084 40.2311 39.1357 28.1004 -7.1250 0.0000 -0.0000 10.3759 76.6177 7.7089 -0.0000 -0.0000 0.0000 70.1418 11.6244 -104.3928 -4.7852 8.2216 -0.3441 0.0000 0.0000 126.3020 -28.8818 29.7366 -15.3021 7.1250 -0.0000 -0.0000 1.2094 3.1334 1.2740
0.00 0.00 0.00 -3.3923 109.6450 3.5329 0.0000 0.0000 0.0000 -16.4211 -23.2887 -9.4422 1.1747 6.8793 19.3582 0.3370 -1.4935 -10.5457 3.2522 -11.0926 -32.5927 0.0000 0.0000 0.0000 24.2675 13.9609 6.6181 -0.2640 -3.3056 9.1307 2.2537 -38.3606 -45.5539 -2.2692 -9.4057 27.0728 -0.7025 2.4496 -1.7458 4.0424 3.3821 -1.2897 4.5903 1.7609 -0.6331 2.2538 -2.1776 -22.2922 3.8338 -3.2679 45.6259 1.3541 0.8238 23.7762 0.0000 0.0000 0.0000 -6.1237 -25.5924 -6.1297 102.9137 -59.3604 -71.1596 -0.0000 0.0000 -48.1611 38.9210 38.4751 26.6753 -7.1250 0.0000 -0.0000 7.9078 75.4718 5.6790 0.0000 0.0000 0.0000 71.1672 8.3308 -62.9707 -3.9393 6.7858 -0.2336 0.0000 0.0000 77.4252 -30.4603 29.1948 -16.0065 7.1250 -0.0000 -0.0000 0.2044 2.9725 0.2147
0.00 0.00 0.00 -3.7041 109.4440 3.2357 0.0000 0.0000 0.0000 -16.5337 -23.1769 -9.3941 1.1824 6.9009 19.4222 0.3406 -1.3500 -10.6349 3.3954 -11.3092 -33.3299 0.0000 0.0000 0.0000 24.3673 14.0825 6.8463 -0.2647 -3.3095 9.1417 1.6892 -37.5455 -46.2689 -2.5874 -9.9952 28.9611 -0.9734 2.4842 -1.9883 3.9917 3.4235 -1.2403 4.7046 1.7791 -0.4629 2.3126 -1.9551 -22.2273 3.4047 -2.6901 45.7158 1.2516 0.9850 23.7881 -0.0000 -0.0000 0.0000 -6.4504 -25.9440 -5.8231 101.7046 -59.4760 -70.1186 -0.0000 0.0000 -48.1703 38.0859 37.8270 25.6703 -7.1250 0.0000 -0.0000 6.6409 74.5033 4.6300 -0.0000 -0.0000 0.0000 72.0194 4.5696 -21.6583 -6.3125 10.7823 -0.5963 0.0000 0.0000 31.4100 -32.9389 27.8721 -16.8510 7.1250 -0.0000 -0.0000 -1.4787 2.2276 -1.5356
0.00 0.00 0.00 -4.1995 108.5700 2.4762 0.0000 0.0000 0.0000 -16.8256 -22.8397 -8.7912 1.1786 6.8903 19.3909 0.3766 -0.8300 -11.3312 3.2133 -11.0327 -32.3901 0.0000 0.0000 0.0000 24.5104 14.7049 7.6030 -0.2621 -3.2934 9.0967 1.5540 -37.3855 -46.5017 -2.6465 -10.0996 29.2999 -1.5569 1.8006 -2.4369 3.6300 2.4931 -1.1148 4.6704 1.2962 -0.0080 2.9970 -0.9982 -21.6064 2.4002 -0.7295 46.5084 1.0984 1.7112 24.2286 -0.0000 -0.0000 0.0000 -8.7581 -23.9201 -3.4345 107.8771 -58.7573 -75.4174 -0.0000 0.0000 -43.6826 37.8126 35.6914 24.3587 -7.1250 0.0000 -0.0000 7.3605 72.1414 4.7561 -0.0000 -0.0000 0.0000 71.2649 -2.5377 17.6923 -22.0996 33.0895 -6.6402 0.0000 -0.0000 -8.2261 -25.8521 18.1481 -8.5824 7.1250 -0.0000 -0.0000 1.4464 -9.9717 1.1745
0.00 0.00 0.00 -0.4637 105.5830 5.9103 0.0000 0.0000 0.0000 -15.6056 -21.9787 -8.7462 1.2578 7.1096 20.0404 0.4174 0.9961 -12.6051 3.2374 -11.0698 -32.5158 0.0000 0.0000 0.0000 25.2763 17.3056 9.3900 -0.1339 -2.3585 6.4975 4.7979 -41.6118 -41.9183 -1.5927 -7.9604 22.5939 -1.5878 1.7167 -2.6245 2.7032 2.3596 -1.2077 3.7282 1.2149 0.0529 4.1911 -0.4801 -21.4373 4.6679 -1.4577 47.1310 2.0727 2.0091 24.9339 0.0000 0.0000 0.0000 -13.4348 -23.3905 2.6859 123.1044 -55.4243 -88.2288 -0.0000 0.0000 -39.8981 35.6974 34.3638 22.0753 -7.1250 0.0000 -0.0000 4.4612 70.0305 2.6712 0.0000 0.0000 0.0000 65.3375 -5.6676 31.0554 -73.8902 58.9963 -46.0955 0.0000 -0.0000 -18.7649 6.6938 16.6330 1.9241 7.1250 -0.0000 -0.0000 22.5297 -14.0275 17.8636
0.00 0.00 0.00 0.9222 105.1250 7.4066 0.0000 0.0000 0.0000 -15.0701 -22.3804 -8.9790 1.2956 7.2116 20.3437 0.4289 1.6244 -13.0690 3.1777 -10.9773 -32.2033 0.0000 0.0000 0.0000 25.6310 17.7086 9.7598 -0.0951 -1.9890 5.4751 5.0272 -41.7879 -41.3214 -1.6007 -7.9794 22.6515 -1.8214 1.5765 -2.4430 2.4312 2.1701 -1.2249 3.5682 1.1184 -0.0499 4.5457 -0.4138 -21.3797 5.0500 -1.7779 46.9160 2.1120 1.9902 24.7098 0.0000 0.0000 0.0000 -16.3790 -22.7632 5.0275 127.9545 -53.7879 -92.1838 -0.0000 0.0000 -38.9151 35.2927 33.8808 21.5343 -7.1250 0.0000 -0.0000 4.0711 69.3842 2.3784 0.0000 0.0000 0.0000 66.8924 -4.4925 28.2176 -97.4342 59.7901 -66.4336 0.0000 -0.0000 -33.6136 -0.2870 23.2300 -0.1132 7.1250 -0.0000 -0.0000 17.7766 -7.6219 16.0764
